<?xml version="1.0" encoding="utf-8"?>
<!-- Generator: Adobe Illustrator 24.2.3, SVG Export Plug-In . SVG Version: 6.00 Build 0)  -->
<svg version="1.1" id="Capa_1" xmlns="http://www.w3.org/2000/svg" xmlns:xlink="http://www.w3.org/1999/xlink" x="0px" y="0px"
	 viewBox="0 0 233 67" style="enable-background:new 0 0 233 67;" xml:space="preserve">
<style type="text/css">
	.st0{fill:#9C1EAF;}
</style>
<path class="st0" d="M0,0h10.49v65.95H0V0z M59.11,65.95h-9.97v-6.72h-0.18c-0.99,2.09-2.51,3.91-4.55,5.45
	C42.38,66.23,39.61,67,36.12,67c-2.8,0-5.18-0.45-7.13-1.35c-1.95-0.9-3.54-2.12-4.77-3.66c-1.22-1.54-2.1-3.3-2.62-5.28
	c-0.52-1.98-0.79-4.04-0.79-6.19V24.08h10.49v21.2c0,1.16,0.06,2.46,0.17,3.88c0.12,1.43,0.42,2.76,0.92,4.01
	c0.49,1.25,1.25,2.3,2.27,3.14c1.02,0.84,2.46,1.27,4.33,1.27c1.75,0,3.22-0.29,4.42-0.87c1.19-0.58,2.19-1.36,2.97-2.36
	c0.79-0.99,1.36-2.12,1.71-3.4c0.35-1.28,0.52-2.62,0.52-4.01V24.08h10.49V65.95z M63.57,24.08h11.46l11.19,29.31h0.18l11.28-29.31
	h10.76L91.91,65.95H80.71L63.57,24.08z M117.27,47.11c0.18,2.04,0.67,3.96,1.49,5.76c0.82,1.8,1.89,3.36,3.24,4.67
	c1.34,1.31,2.89,2.34,4.63,3.1c1.75,0.76,3.64,1.13,5.68,1.13c3.09,0,5.76-0.71,8-2.14c2.24-1.42,3.95-3.07,5.12-4.93l4.46,3.66
	c-2.45,3.08-5.15,5.29-8.09,6.63c-2.94,1.34-6.11,2.01-9.49,2.01c-3.03,0-5.85-0.54-8.44-1.61c-2.59-1.08-4.82-2.57-6.69-4.49
	c-1.87-1.92-3.34-4.19-4.42-6.81c-1.08-2.62-1.62-5.47-1.62-8.55c0-3.08,0.53-5.93,1.57-8.55c1.05-2.62,2.51-4.89,4.37-6.8
	c1.87-1.92,4.05-3.42,6.56-4.49c2.51-1.08,5.22-1.61,8.13-1.61c3.09,0,5.86,0.55,8.31,1.66c2.45,1.11,4.5,2.57,6.17,4.41
	s2.93,3.98,3.8,6.46c0.87,2.47,1.31,5.1,1.31,7.89v2.62H117.27z M145.07,42.4c0-3.9-1.17-7.05-3.5-9.47
	c-2.33-2.41-5.6-3.62-9.79-3.62c-1.87,0-3.67,0.36-5.42,1.09c-1.75,0.73-3.28,1.7-4.59,2.92c-1.31,1.22-2.36,2.62-3.15,4.19
	c-0.79,1.57-1.18,3.2-1.18,4.89H145.07z M182.85,40.92v-1.05c0-7.04-3.5-10.56-10.49-10.56c-4.78,0-8.95,1.6-12.5,4.8l-3.5-4.1
	c3.85-3.95,9.62-5.93,17.32-5.93c1.98,0,3.89,0.29,5.73,0.87c1.84,0.58,3.42,1.47,4.77,2.66c1.34,1.19,2.42,2.69,3.24,4.49
	c0.82,1.8,1.22,3.96,1.22,6.46v18.23c0,1.57,0.07,3.21,0.22,4.93c0.14,1.72,0.31,3.13,0.48,4.23h-5.6
	c-0.18-0.99-0.31-2.06-0.39-3.23c-0.09-1.16-0.13-2.3-0.13-3.4h-0.18c-1.69,2.73-3.69,4.7-5.99,5.89c-2.3,1.19-5.12,1.79-8.44,1.79
	c-1.81,0-3.56-0.25-5.25-0.74s-3.19-1.25-4.5-2.27c-1.31-1.02-2.36-2.27-3.15-3.75c-0.79-1.48-1.18-3.21-1.18-5.19
	c0-3.32,0.86-5.92,2.58-7.81c1.72-1.89,3.88-3.3,6.47-4.23c2.59-0.93,5.36-1.51,8.31-1.74c2.94-0.23,5.64-0.35,8.09-0.35H182.85z
	 M179.88,45.63c-1.46,0-3.28,0.07-5.46,0.22c-2.19,0.15-4.29,0.49-6.3,1.05c-2.01,0.55-3.73,1.41-5.16,2.57
	c-1.43,1.16-2.14,2.76-2.14,4.8c0,1.34,0.28,2.49,0.83,3.45c0.55,0.96,1.3,1.74,2.23,2.36c0.93,0.61,1.97,1.05,3.1,1.31
	c1.14,0.26,2.29,0.39,3.45,0.39c2.1,0,3.92-0.35,5.47-1.05c1.54-0.7,2.84-1.64,3.89-2.84c1.05-1.19,1.82-2.59,2.32-4.19
	c0.49-1.6,0.74-3.3,0.74-5.1v-2.97H179.88z M217.92,30.36h-11.81v24.08c0,1.51,0.14,2.75,0.44,3.71c0.29,0.96,0.7,1.7,1.22,2.22
	c0.52,0.52,1.15,0.89,1.88,1.09c0.73,0.2,1.53,0.31,2.4,0.31c0.99,0,2.01-0.14,3.06-0.44c1.05-0.29,2.01-0.67,2.89-1.13l0.26,5.32
	c-2.16,0.99-4.75,1.48-7.78,1.48c-1.11,0-2.26-0.15-3.45-0.44c-1.2-0.29-2.29-0.84-3.28-1.66c-0.99-0.81-1.81-1.92-2.45-3.32
	c-0.64-1.4-0.96-3.23-0.96-5.5V30.36h-8.66v-5.23h8.66V13.61h5.77v11.52h11.81V30.36z M221.2,61.19c0-0.84,0.16-1.61,0.47-2.33
	c0.32-0.72,0.74-1.34,1.27-1.86c0.54-0.52,1.16-0.93,1.87-1.23c0.71-0.3,1.47-0.45,2.28-0.45c0.8,0,1.55,0.15,2.27,0.45
	c0.72,0.3,1.34,0.71,1.88,1.22c0.53,0.52,0.96,1.13,1.27,1.84c0.31,0.71,0.47,1.47,0.47,2.3c0,0.84-0.16,1.61-0.47,2.33
	c-0.32,0.72-0.74,1.34-1.27,1.86c-0.54,0.52-1.16,0.93-1.88,1.23S227.9,67,227.1,67c-0.81,0-1.57-0.15-2.28-0.45
	c-0.71-0.3-1.34-0.71-1.87-1.22c-0.53-0.52-0.96-1.13-1.27-1.84C221.36,62.79,221.2,62.02,221.2,61.19z M222.15,61.19
	c0,0.7,0.13,1.35,0.38,1.95c0.26,0.6,0.61,1.12,1.06,1.57c0.45,0.44,0.98,0.8,1.57,1.05c0.6,0.26,1.24,0.38,1.94,0.38
	s1.34-0.13,1.94-0.38c0.6-0.26,1.12-0.61,1.57-1.06c0.45-0.45,0.8-0.98,1.06-1.59c0.26-0.61,0.38-1.27,0.38-1.99
	c0-0.7-0.13-1.36-0.38-1.96c-0.26-0.61-0.61-1.13-1.06-1.58c-0.45-0.44-0.98-0.79-1.57-1.04c-0.6-0.25-1.24-0.38-1.94-0.38
	s-1.34,0.13-1.94,0.38s-1.12,0.61-1.57,1.05c-0.45,0.44-0.81,0.97-1.06,1.58C222.27,59.8,222.15,60.47,222.15,61.19z M224.91,57.82
	h2.49c0.82,0,1.42,0.15,1.81,0.46c0.39,0.31,0.58,0.8,0.58,1.48c0,0.61-0.17,1.05-0.52,1.33c-0.35,0.28-0.77,0.45-1.27,0.5
	l1.95,2.98h-1.02l-1.86-2.9h-1.21v2.9h-0.94V57.82z M225.86,60.83h1.16c0.23,0,0.46-0.01,0.68-0.02c0.22-0.02,0.42-0.06,0.59-0.13
	c0.17-0.07,0.31-0.18,0.41-0.33c0.1-0.15,0.15-0.35,0.15-0.63c0-0.23-0.04-0.42-0.13-0.56c-0.09-0.14-0.21-0.25-0.35-0.32
	c-0.15-0.07-0.31-0.12-0.5-0.14c-0.18-0.02-0.36-0.03-0.54-0.03h-1.46V60.83z"/>
</svg>
