<svg width="374" height="240" preserveAspectRatio="none" viewBox="0 0 374 240" fill="none" xmlns="http://www.w3.org/2000/svg">
<mask id="path-1-inside-1" fill="white">
<path fill-rule="evenodd" clip-rule="evenodd" d="M111 4C112.45 4 113.175 3 113.9 2C114.625 1 115.35 0 116.8 0C118.313 0 119.063 1.01702 119.806 2.02542C120.537 3.01688 121.262 4 122.7 4C124.15 4 124.875 3 125.6 2C126.325 1 127.05 0 128.5 0C129.938 0 130.663 0.983121 131.394 1.97457C132.137 2.98298 132.887 4 134.4 4C135.85 4 136.575 3 137.3 2C138.025 1 138.75 0 140.2 0C141.638 0 142.363 0.983121 143.094 1.97457C143.837 2.98298 144.587 4 146.1 4C147.55 4 148.275 3 149 2V1.99997C149.725 0.999979 150.45 0 151.9 0C153.338 0 154.063 0.983121 154.794 1.97457C155.537 2.98298 156.287 4 157.8 4C159.25 4 159.975 3 160.7 2V1.99997C161.425 0.999979 162.15 0 163.6 0C165.038 0 165.763 0.983121 166.494 1.97457C167.237 2.98298 167.987 4 169.5 4C170.95 4 171.675 3 172.4 2C173.125 1 173.85 0 175.3 0C176.738 0 177.463 0.983121 178.194 1.97457C178.937 2.98298 179.687 4 181.2 4C182.65 4 183.375 3 184.1 2V1.99997C184.825 0.999979 185.55 0 187 0C188.438 0 189.163 0.983121 189.894 1.97457C190.629 2.97162 191.37 3.97708 192.849 3.99961C194.266 3.97727 194.983 2.98864 195.7 2V1.99997C196.425 0.999979 197.15 0 198.6 0C200.113 0 200.863 1.01702 201.606 2.02543C202.337 3.01688 203.062 4 204.5 4C205.95 4 206.675 3 207.4 2C208.125 1 208.85 0 210.3 0C211.738 0 212.463 0.983121 213.194 1.97457C213.937 2.98298 214.687 4 216.2 4C217.65 4 218.375 3 219.1 2V1.99997C219.825 0.999979 220.55 0 222 0C223.438 0 224.163 0.983121 224.894 1.97457C225.637 2.98298 226.387 4 227.9 4C229.35 4 230.075 3 230.8 2C231.525 1 232.25 0 233.7 0C235.138 0 235.863 0.983121 236.594 1.97457C237.337 2.98298 238.087 4 239.6 4C241.05 4 241.775 3 242.5 2V1.99997C243.225 0.999979 243.95 0 245.4 0C246.838 0 247.563 0.983121 248.294 1.97457C249.037 2.98298 249.787 4 251.3 4C252.75 4 253.475 3 254.2 2V1.99997C254.925 0.999979 255.65 0 257.1 0C258.538 0 259.263 0.983121 259.994 1.97457C260.737 2.98298 261.487 4 263 4C264.45 4 265.175 3.00004 265.9 2.00006V2L265.9 1.99994C266.625 0.999958 267.35 0 268.8 0C270.238 0 270.963 0.983121 271.694 1.97457C272.429 2.9716 273.171 3.97705 274.649 3.99961C276.066 3.97724 276.783 2.98866 277.5 2.00006L277.5 2C278.225 1 278.95 0 280.4 0C281.913 0 282.663 1.01702 283.406 2.02543C284.137 3.01688 284.862 4 286.3 4C287.75 4 288.475 3 289.2 2C289.925 1 290.65 0 292.1 0C293.613 0 294.363 1.01702 295.106 2.02543C295.837 3.01688 296.562 4 298 4C299.45 4 300.175 3.00004 300.9 2.00006V2L300.9 1.99994C301.625 0.999958 302.35 0 303.8 0C305.238 0 305.963 0.983121 306.694 1.97457C307.437 2.98298 308.187 4 309.7 4C311.15 4 311.875 3.00004 312.6 2.00006V2L312.6 1.99994C313.325 0.999958 314.05 0 315.5 0C316.938 0 317.663 0.983121 318.394 1.97457C319.137 2.98298 319.887 4 321.4 4C322.85 4 323.575 3 324.3 2C325.025 1 325.75 0 327.2 0C328.638 0 329.363 0.983121 330.094 1.97457C330.837 2.98298 331.587 4 333.1 4C334.55 4 335.275 3 336 2C336.725 1 337.45 0 338.9 0C340.338 0 341.063 0.983121 341.794 1.97457C342.537 2.98298 343.287 4 344.8 4C346.25 4 346.975 3 347.7 2C348.425 1 349.15 0 350.6 0C352.038 0 352.763 0.983121 353.494 1.97457C354.229 2.97178 354.971 3.97742 356.45 3.99963C357.929 3.97742 358.671 2.97181 359.406 1.97462V1.97457C360.137 0.98312 360.862 0 362.3 0C363.75 0 364.475 1 365.2 2C365.925 3 366.65 4 368.1 4C369.613 4 370.363 2.98298 371.106 1.97457C371.837 0.98312 372.562 0 374 0V4V236V240C372.562 240 371.837 239.017 371.106 238.025C370.363 237.017 369.613 236 368.1 236C366.65 236 365.925 237 365.2 238C364.475 239 363.75 240 362.3 240C360.862 240 360.137 239.017 359.406 238.025C358.671 237.028 357.929 236.023 356.45 236C354.971 236.023 354.229 237.028 353.494 238.025C352.763 239.017 352.038 240 350.6 240C349.15 240 348.425 239 347.7 238C346.975 237 346.25 236 344.8 236C343.287 236 342.537 237.017 341.794 238.025C341.063 239.017 340.338 240 338.9 240C337.45 240 336.725 239 336 238C335.275 237 334.55 236 333.1 236C331.587 236 330.837 237.017 330.094 238.025C329.363 239.017 328.638 240 327.2 240C325.75 240 325.025 239 324.3 238C323.575 237 322.85 236 321.4 236C319.887 236 319.137 237.017 318.394 238.025C317.663 239.017 316.938 240 315.5 240C314.05 240 313.325 239 312.6 238C311.875 237 311.15 236 309.7 236C308.187 236 307.437 237.017 306.694 238.025C305.963 239.017 305.238 240 303.8 240C302.35 240 301.625 239 300.9 238C300.175 237 299.45 236 298 236C296.562 236 295.837 236.983 295.106 237.975C294.363 238.983 293.613 240 292.1 240C290.65 240 289.925 239 289.2 238C288.475 237 287.75 236 286.3 236C284.862 236 284.137 236.983 283.406 237.975C282.663 238.983 281.913 240 280.4 240C278.95 240 278.225 239 277.5 238C276.783 237.011 276.066 236.023 274.649 236C273.171 236.023 272.429 237.028 271.694 238.025C270.963 239.017 270.238 240 268.8 240C267.35 240 266.625 239 265.9 238C265.175 237 264.45 236 263 236C261.487 236 260.737 237.017 259.994 238.025C259.263 239.017 258.538 240 257.1 240C255.65 240 254.925 239 254.2 238C253.475 237 252.75 236 251.3 236C249.787 236 249.037 237.017 248.294 238.025C247.563 239.017 246.838 240 245.4 240C243.95 240 243.225 239 242.5 238C241.775 237 241.05 236 239.6 236C238.087 236 237.337 237.017 236.594 238.025C235.863 239.017 235.138 240 233.7 240C232.25 240 231.525 239 230.8 238C230.075 237 229.35 236 227.9 236C226.387 236 225.637 237.017 224.894 238.025C224.163 239.017 223.438 240 222 240C220.55 240 219.825 239 219.1 238C218.375 237 217.65 236 216.2 236C214.687 236 213.937 237.017 213.194 238.025C212.463 239.017 211.738 240 210.3 240C208.85 240 208.125 239 207.4 238C206.675 237 205.95 236 204.5 236C203.062 236 202.337 236.983 201.606 237.975C200.863 238.983 200.113 240 198.6 240C197.15 240 196.425 239 195.7 238C194.983 237.011 194.266 236.023 192.849 236C191.37 236.023 190.629 237.028 189.894 238.025C189.163 239.017 188.438 240 187 240C185.55 240 184.825 239 184.1 238C183.375 237 182.65 236 181.2 236C179.687 236 178.937 237.017 178.194 238.025C177.463 239.017 176.738 240 175.3 240C173.85 240 173.125 239 172.4 238C171.675 237 170.95 236 169.5 236C167.987 236 167.237 237.017 166.494 238.025C165.763 239.017 165.038 240 163.6 240C162.15 240 161.425 239 160.7 238C159.975 237 159.25 236 157.8 236C156.287 236 155.537 237.017 154.794 238.025C154.063 239.017 153.338 240 151.9 240C150.45 240 149.725 239 149 238C148.275 237 147.55 236 146.1 236C144.587 236 143.837 237.017 143.094 238.025C142.363 239.017 141.638 240 140.2 240C138.75 240 138.025 239 137.3 238C136.575 237 135.85 236 134.4 236C132.887 236 132.137 237.017 131.394 238.025C130.663 239.017 129.938 240 128.5 240C127.05 240 126.325 239 125.6 238C124.875 237 124.15 236 122.7 236C121.262 236 120.537 236.983 119.806 237.975C119.063 238.983 118.313 240 116.8 240C115.35 240 114.625 239 113.9 238C113.175 237 112.45 236 111 236C109.55 236 108.825 237 108.1 238C107.375 239 106.65 240 105.2 240C103.75 240 103.025 239 102.3 238C101.575 237 100.85 236 99.4 236C97.8873 236 97.1373 237.017 96.3938 238.025C95.6627 239.017 94.9377 240 93.5 240C92.05 240 91.325 239 90.6 238C89.875 237 89.15 236 87.7 236C86.1873 236 85.4373 237.017 84.6937 238.025C83.9627 239.017 83.2377 240 81.8 240C80.35 240 79.625 239 78.9 238C78.175 237 77.45 236 76 236C74.4873 236 73.7373 237.017 72.9938 238.025C72.2627 239.017 71.5377 240 70.1 240C68.65 240 67.925 239 67.2 238C66.475 237 65.75 236 64.3 236C62.7873 236 62.0373 237.017 61.2938 238.025C60.5627 239.017 59.8377 240 58.4 240C56.95 240 56.225 239 55.5 238C54.775 237 54.05 236 52.6 236C51.1623 236 50.4373 236.983 49.7062 237.975C48.9627 238.983 48.2127 240 46.7 240C45.25 240 44.525 239 43.8 238C43.075 237 42.35 236 40.9 236C39.4623 236 38.7373 236.983 38.0062 237.975C37.2627 238.983 36.5127 240 35 240C33.55 240 32.825 239 32.1 238C31.3832 237.011 30.6665 236.023 29.2492 236C27.7704 236.023 27.029 237.028 26.2938 238.025C25.5627 239.017 24.8377 240 23.4 240C21.95 240 21.225 239 20.5 238C19.775 237 19.05 236 17.6 236H17.5C16.05 236 15.325 237 14.6 238C13.875 239 13.15 240 11.7 240C10.2623 240 9.53734 239.017 8.80625 238.025C8.06266 237.017 7.31271 236 5.8 236C4.35 236 3.625 237 2.9 238C2.175 239 1.45 240 0 240V236V4V0C1.45 0 2.175 1 2.9 2C3.625 3 4.35 4 5.8 4C7.31271 4 8.06266 2.98298 8.80625 1.97458C9.53734 0.983122 10.2623 0 11.7 0C13.15 0 13.875 1 14.6 2C15.325 3 16.05 4 17.5 4H17.6C19.05 4 19.775 3 20.5 2C21.225 1 21.95 0 23.4 0C24.8377 0 25.5627 0.983121 26.2938 1.97458C27.029 2.97162 27.7704 3.97708 29.2492 3.99961C30.6665 3.97727 31.3832 2.98864 32.1 2C32.825 1 33.55 0 35 0C36.5127 0 37.2627 1.01702 38.0062 2.02542C38.7373 3.01688 39.4623 4 40.9 4C42.35 4 43.075 3 43.8 2C44.525 1 45.25 0 46.7 0C48.2127 0 48.9627 1.01702 49.7062 2.02542C50.4373 3.01688 51.1623 4 52.6 4C54.05 4 54.775 3 55.5 2C56.225 1 56.95 0 58.4 0C59.8377 0 60.5627 0.983122 61.2938 1.97458C62.0373 2.98298 62.7873 4 64.3 4C65.75 4 66.475 3 67.2 2C67.925 1 68.65 0 70.1 0C71.5377 0 72.2627 0.983122 72.9938 1.97458C73.7373 2.98298 74.4873 4 76 4C77.45 4 78.175 3 78.9 2C79.625 1 80.35 0 81.8 0C83.2377 0 83.9627 0.983122 84.6937 1.97458C85.4373 2.98298 86.1873 4 87.7 4C89.15 4 89.875 3 90.6 2C91.325 1 92.05 0 93.5 0C94.9377 0 95.6627 0.983122 96.3938 1.97458C97.1373 2.98298 97.8873 4 99.4 4C100.85 4 101.575 3 102.3 2C103.025 1 103.75 0 105.2 0C106.65 0 107.375 1 108.1 2C108.825 3 109.55 4 111 4Z"/>
</mask>
<path fill-rule="evenodd" clip-rule="evenodd" d="M111 4C112.45 4 113.175 3 113.9 2C114.625 1 115.35 0 116.8 0C118.313 0 119.063 1.01702 119.806 2.02542C120.537 3.01688 121.262 4 122.7 4C124.15 4 124.875 3 125.6 2C126.325 1 127.05 0 128.5 0C129.938 0 130.663 0.983121 131.394 1.97457C132.137 2.98298 132.887 4 134.4 4C135.85 4 136.575 3 137.3 2C138.025 1 138.75 0 140.2 0C141.638 0 142.363 0.983121 143.094 1.97457C143.837 2.98298 144.587 4 146.1 4C147.55 4 148.275 3 149 2V1.99997C149.725 0.999979 150.45 0 151.9 0C153.338 0 154.063 0.983121 154.794 1.97457C155.537 2.98298 156.287 4 157.8 4C159.25 4 159.975 3 160.7 2V1.99997C161.425 0.999979 162.15 0 163.6 0C165.038 0 165.763 0.983121 166.494 1.97457C167.237 2.98298 167.987 4 169.5 4C170.95 4 171.675 3 172.4 2C173.125 1 173.85 0 175.3 0C176.738 0 177.463 0.983121 178.194 1.97457C178.937 2.98298 179.687 4 181.2 4C182.65 4 183.375 3 184.1 2V1.99997C184.825 0.999979 185.55 0 187 0C188.438 0 189.163 0.983121 189.894 1.97457C190.629 2.97162 191.37 3.97708 192.849 3.99961C194.266 3.97727 194.983 2.98864 195.7 2V1.99997C196.425 0.999979 197.15 0 198.6 0C200.113 0 200.863 1.01702 201.606 2.02543C202.337 3.01688 203.062 4 204.5 4C205.95 4 206.675 3 207.4 2C208.125 1 208.85 0 210.3 0C211.738 0 212.463 0.983121 213.194 1.97457C213.937 2.98298 214.687 4 216.2 4C217.65 4 218.375 3 219.1 2V1.99997C219.825 0.999979 220.55 0 222 0C223.438 0 224.163 0.983121 224.894 1.97457C225.637 2.98298 226.387 4 227.9 4C229.35 4 230.075 3 230.8 2C231.525 1 232.25 0 233.7 0C235.138 0 235.863 0.983121 236.594 1.97457C237.337 2.98298 238.087 4 239.6 4C241.05 4 241.775 3 242.5 2V1.99997C243.225 0.999979 243.95 0 245.4 0C246.838 0 247.563 0.983121 248.294 1.97457C249.037 2.98298 249.787 4 251.3 4C252.75 4 253.475 3 254.2 2V1.99997C254.925 0.999979 255.65 0 257.1 0C258.538 0 259.263 0.983121 259.994 1.97457C260.737 2.98298 261.487 4 263 4C264.45 4 265.175 3.00004 265.9 2.00006V2L265.9 1.99994C266.625 0.999958 267.35 0 268.8 0C270.238 0 270.963 0.983121 271.694 1.97457C272.429 2.9716 273.171 3.97705 274.649 3.99961C276.066 3.97724 276.783 2.98866 277.5 2.00006L277.5 2C278.225 1 278.95 0 280.4 0C281.913 0 282.663 1.01702 283.406 2.02543C284.137 3.01688 284.862 4 286.3 4C287.75 4 288.475 3 289.2 2C289.925 1 290.65 0 292.1 0C293.613 0 294.363 1.01702 295.106 2.02543C295.837 3.01688 296.562 4 298 4C299.45 4 300.175 3.00004 300.9 2.00006V2L300.9 1.99994C301.625 0.999958 302.35 0 303.8 0C305.238 0 305.963 0.983121 306.694 1.97457C307.437 2.98298 308.187 4 309.7 4C311.15 4 311.875 3.00004 312.6 2.00006V2L312.6 1.99994C313.325 0.999958 314.05 0 315.5 0C316.938 0 317.663 0.983121 318.394 1.97457C319.137 2.98298 319.887 4 321.4 4C322.85 4 323.575 3 324.3 2C325.025 1 325.75 0 327.2 0C328.638 0 329.363 0.983121 330.094 1.97457C330.837 2.98298 331.587 4 333.1 4C334.55 4 335.275 3 336 2C336.725 1 337.45 0 338.9 0C340.338 0 341.063 0.983121 341.794 1.97457C342.537 2.98298 343.287 4 344.8 4C346.25 4 346.975 3 347.7 2C348.425 1 349.15 0 350.6 0C352.038 0 352.763 0.983121 353.494 1.97457C354.229 2.97178 354.971 3.97742 356.45 3.99963C357.929 3.97742 358.671 2.97181 359.406 1.97462V1.97457C360.137 0.98312 360.862 0 362.3 0C363.75 0 364.475 1 365.2 2C365.925 3 366.65 4 368.1 4C369.613 4 370.363 2.98298 371.106 1.97457C371.837 0.98312 372.562 0 374 0V4V236V240C372.562 240 371.837 239.017 371.106 238.025C370.363 237.017 369.613 236 368.1 236C366.65 236 365.925 237 365.2 238C364.475 239 363.75 240 362.3 240C360.862 240 360.137 239.017 359.406 238.025C358.671 237.028 357.929 236.023 356.45 236C354.971 236.023 354.229 237.028 353.494 238.025C352.763 239.017 352.038 240 350.6 240C349.15 240 348.425 239 347.7 238C346.975 237 346.25 236 344.8 236C343.287 236 342.537 237.017 341.794 238.025C341.063 239.017 340.338 240 338.9 240C337.45 240 336.725 239 336 238C335.275 237 334.55 236 333.1 236C331.587 236 330.837 237.017 330.094 238.025C329.363 239.017 328.638 240 327.2 240C325.75 240 325.025 239 324.3 238C323.575 237 322.85 236 321.4 236C319.887 236 319.137 237.017 318.394 238.025C317.663 239.017 316.938 240 315.5 240C314.05 240 313.325 239 312.6 238C311.875 237 311.15 236 309.7 236C308.187 236 307.437 237.017 306.694 238.025C305.963 239.017 305.238 240 303.8 240C302.35 240 301.625 239 300.9 238C300.175 237 299.45 236 298 236C296.562 236 295.837 236.983 295.106 237.975C294.363 238.983 293.613 240 292.1 240C290.65 240 289.925 239 289.2 238C288.475 237 287.75 236 286.3 236C284.862 236 284.137 236.983 283.406 237.975C282.663 238.983 281.913 240 280.4 240C278.95 240 278.225 239 277.5 238C276.783 237.011 276.066 236.023 274.649 236C273.171 236.023 272.429 237.028 271.694 238.025C270.963 239.017 270.238 240 268.8 240C267.35 240 266.625 239 265.9 238C265.175 237 264.45 236 263 236C261.487 236 260.737 237.017 259.994 238.025C259.263 239.017 258.538 240 257.1 240C255.65 240 254.925 239 254.2 238C253.475 237 252.75 236 251.3 236C249.787 236 249.037 237.017 248.294 238.025C247.563 239.017 246.838 240 245.4 240C243.95 240 243.225 239 242.5 238C241.775 237 241.05 236 239.6 236C238.087 236 237.337 237.017 236.594 238.025C235.863 239.017 235.138 240 233.7 240C232.25 240 231.525 239 230.8 238C230.075 237 229.35 236 227.9 236C226.387 236 225.637 237.017 224.894 238.025C224.163 239.017 223.438 240 222 240C220.55 240 219.825 239 219.1 238C218.375 237 217.65 236 216.2 236C214.687 236 213.937 237.017 213.194 238.025C212.463 239.017 211.738 240 210.3 240C208.85 240 208.125 239 207.4 238C206.675 237 205.95 236 204.5 236C203.062 236 202.337 236.983 201.606 237.975C200.863 238.983 200.113 240 198.6 240C197.15 240 196.425 239 195.7 238C194.983 237.011 194.266 236.023 192.849 236C191.37 236.023 190.629 237.028 189.894 238.025C189.163 239.017 188.438 240 187 240C185.55 240 184.825 239 184.1 238C183.375 237 182.65 236 181.2 236C179.687 236 178.937 237.017 178.194 238.025C177.463 239.017 176.738 240 175.3 240C173.85 240 173.125 239 172.4 238C171.675 237 170.95 236 169.5 236C167.987 236 167.237 237.017 166.494 238.025C165.763 239.017 165.038 240 163.6 240C162.15 240 161.425 239 160.7 238C159.975 237 159.25 236 157.8 236C156.287 236 155.537 237.017 154.794 238.025C154.063 239.017 153.338 240 151.9 240C150.45 240 149.725 239 149 238C148.275 237 147.55 236 146.1 236C144.587 236 143.837 237.017 143.094 238.025C142.363 239.017 141.638 240 140.2 240C138.75 240 138.025 239 137.3 238C136.575 237 135.85 236 134.4 236C132.887 236 132.137 237.017 131.394 238.025C130.663 239.017 129.938 240 128.5 240C127.05 240 126.325 239 125.6 238C124.875 237 124.15 236 122.7 236C121.262 236 120.537 236.983 119.806 237.975C119.063 238.983 118.313 240 116.8 240C115.35 240 114.625 239 113.9 238C113.175 237 112.45 236 111 236C109.55 236 108.825 237 108.1 238C107.375 239 106.65 240 105.2 240C103.75 240 103.025 239 102.3 238C101.575 237 100.85 236 99.4 236C97.8873 236 97.1373 237.017 96.3938 238.025C95.6627 239.017 94.9377 240 93.5 240C92.05 240 91.325 239 90.6 238C89.875 237 89.15 236 87.7 236C86.1873 236 85.4373 237.017 84.6937 238.025C83.9627 239.017 83.2377 240 81.8 240C80.35 240 79.625 239 78.9 238C78.175 237 77.45 236 76 236C74.4873 236 73.7373 237.017 72.9938 238.025C72.2627 239.017 71.5377 240 70.1 240C68.65 240 67.925 239 67.2 238C66.475 237 65.75 236 64.3 236C62.7873 236 62.0373 237.017 61.2938 238.025C60.5627 239.017 59.8377 240 58.4 240C56.95 240 56.225 239 55.5 238C54.775 237 54.05 236 52.6 236C51.1623 236 50.4373 236.983 49.7062 237.975C48.9627 238.983 48.2127 240 46.7 240C45.25 240 44.525 239 43.8 238C43.075 237 42.35 236 40.9 236C39.4623 236 38.7373 236.983 38.0062 237.975C37.2627 238.983 36.5127 240 35 240C33.55 240 32.825 239 32.1 238C31.3832 237.011 30.6665 236.023 29.2492 236C27.7704 236.023 27.029 237.028 26.2938 238.025C25.5627 239.017 24.8377 240 23.4 240C21.95 240 21.225 239 20.5 238C19.775 237 19.05 236 17.6 236H17.5C16.05 236 15.325 237 14.6 238C13.875 239 13.15 240 11.7 240C10.2623 240 9.53734 239.017 8.80625 238.025C8.06266 237.017 7.31271 236 5.8 236C4.35 236 3.625 237 2.9 238C2.175 239 1.45 240 0 240V236V4V0C1.45 0 2.175 1 2.9 2C3.625 3 4.35 4 5.8 4C7.31271 4 8.06266 2.98298 8.80625 1.97458C9.53734 0.983122 10.2623 0 11.7 0C13.15 0 13.875 1 14.6 2C15.325 3 16.05 4 17.5 4H17.6C19.05 4 19.775 3 20.5 2C21.225 1 21.95 0 23.4 0C24.8377 0 25.5627 0.983121 26.2938 1.97458C27.029 2.97162 27.7704 3.97708 29.2492 3.99961C30.6665 3.97727 31.3832 2.98864 32.1 2C32.825 1 33.55 0 35 0C36.5127 0 37.2627 1.01702 38.0062 2.02542C38.7373 3.01688 39.4623 4 40.9 4C42.35 4 43.075 3 43.8 2C44.525 1 45.25 0 46.7 0C48.2127 0 48.9627 1.01702 49.7062 2.02542C50.4373 3.01688 51.1623 4 52.6 4C54.05 4 54.775 3 55.5 2C56.225 1 56.95 0 58.4 0C59.8377 0 60.5627 0.983122 61.2938 1.97458C62.0373 2.98298 62.7873 4 64.3 4C65.75 4 66.475 3 67.2 2C67.925 1 68.65 0 70.1 0C71.5377 0 72.2627 0.983122 72.9938 1.97458C73.7373 2.98298 74.4873 4 76 4C77.45 4 78.175 3 78.9 2C79.625 1 80.35 0 81.8 0C83.2377 0 83.9627 0.983122 84.6937 1.97458C85.4373 2.98298 86.1873 4 87.7 4C89.15 4 89.875 3 90.6 2C91.325 1 92.05 0 93.5 0C94.9377 0 95.6627 0.983122 96.3938 1.97458C97.1373 2.98298 97.8873 4 99.4 4C100.85 4 101.575 3 102.3 2C103.025 1 103.75 0 105.2 0C106.65 0 107.375 1 108.1 2C108.825 3 109.55 4 111 4Z" fill="white"/>
<path d="M119.806 2.02542L120.611 1.43194L120.611 1.43194L119.806 2.02542ZM131.394 1.97457L130.589 2.56805L130.589 2.56806L131.394 1.97457ZM143.094 1.97457L143.899 1.38109L143.899 1.38109L143.094 1.97457ZM149 2L149.81 2.58697L150 2.32436V2H149ZM149 1.99997L148.19 1.41299L148 1.6756V1.99997H149ZM154.794 1.97457L155.599 1.38109L155.599 1.38109L154.794 1.97457ZM160.7 2L161.51 2.58697L161.7 2.32436V2H160.7ZM160.7 1.99997L159.89 1.41299L159.7 1.6756V1.99997H160.7ZM166.494 1.97457L165.689 2.56805L165.689 2.56806L166.494 1.97457ZM178.194 1.97457L177.389 2.56805L177.389 2.56806L178.194 1.97457ZM184.1 2L184.91 2.58697L185.1 2.32436V2H184.1ZM184.1 1.99997L183.29 1.41299L183.1 1.6756V1.99997H184.1ZM189.894 1.97457L189.089 2.56805L189.089 2.56806L189.894 1.97457ZM192.849 3.99961L192.834 4.9995L192.849 4.99973L192.865 4.99949L192.849 3.99961ZM195.7 2L196.51 2.58697L196.7 2.32436V2H195.7ZM195.7 1.99997L194.89 1.41299L194.7 1.6756V1.99997H195.7ZM201.606 2.02543L202.411 1.43195L202.411 1.43194L201.606 2.02543ZM213.194 1.97457L212.389 2.56805L212.389 2.56806L213.194 1.97457ZM219.1 2L219.91 2.58697L220.1 2.32436V2H219.1ZM219.1 1.99997L218.29 1.41299L218.1 1.6756V1.99997H219.1ZM224.894 1.97457L224.089 2.56805L224.089 2.56806L224.894 1.97457ZM236.594 1.97457L237.399 1.38109L237.399 1.38109L236.594 1.97457ZM242.5 2L243.31 2.58697L243.5 2.32436V2H242.5ZM242.5 1.99997L241.69 1.41299L241.5 1.6756V1.99997H242.5ZM248.294 1.97457L249.099 1.38109L249.099 1.38109L248.294 1.97457ZM254.2 2L255.01 2.58697L255.2 2.32436V2H254.2ZM254.2 1.99997L253.39 1.41299L253.2 1.6756V1.99997H254.2ZM259.994 1.97457L259.189 2.56805L259.189 2.56806L259.994 1.97457ZM265.9 2.00006L266.71 2.58704L266.9 2.32443V2.00006H265.9ZM265.9 2L265 1.56506L264.9 1.77114V2H265.9ZM265.9 1.99994L265.09 1.41297L265.038 1.48495L265 1.565L265.9 1.99994ZM271.694 1.97457L270.889 2.56805L270.889 2.56806L271.694 1.97457ZM274.649 3.99961L274.634 4.9995L274.649 4.99973L274.665 4.99949L274.649 3.99961ZM277.5 2.00006L276.925 1.18204L276.788 1.27801L276.69 1.4131L277.5 2.00006ZM277.5 2L278.075 2.81803L278.212 2.72206L278.31 2.58697L277.5 2ZM283.406 2.02543L284.211 1.43195L284.211 1.43194L283.406 2.02543ZM295.106 2.02543L295.911 1.43195L295.911 1.43194L295.106 2.02543ZM300.9 2.00006L301.71 2.58704L301.9 2.32443V2.00006H300.9ZM300.9 2L300 1.56506L299.9 1.77114V2H300.9ZM300.9 1.99994L300.09 1.41297L300.038 1.48495L300 1.565L300.9 1.99994ZM306.694 1.97457L305.889 2.56805L305.889 2.56806L306.694 1.97457ZM312.6 2.00006L313.41 2.58704L313.6 2.32443V2.00006H312.6ZM312.6 2L311.7 1.56506L311.6 1.77114V2H312.6ZM312.6 1.99994L311.79 1.41297L311.738 1.48495L311.7 1.565L312.6 1.99994ZM318.394 1.97457L317.589 2.56805L317.589 2.56806L318.394 1.97457ZM330.094 1.97457L329.289 2.56805L329.289 2.56806L330.094 1.97457ZM341.794 1.97457L340.989 2.56805L340.989 2.56806L341.794 1.97457ZM353.494 1.97457L352.689 2.56805L352.689 2.56807L353.494 1.97457ZM356.45 3.99963L356.435 4.99951L356.45 4.99974L356.465 4.99951L356.45 3.99963ZM359.406 1.97462L360.211 2.56812L360.406 2.30345V1.97462H359.406ZM359.406 1.97457L358.601 1.38109L358.406 1.64575V1.97457H359.406ZM371.106 1.97457L371.911 2.56806L371.911 2.56805L371.106 1.97457ZM374 0H375V-1H374V0ZM374 240V241H375V240H374ZM371.106 238.025L371.911 237.432L371.911 237.432L371.106 238.025ZM359.406 238.025L360.211 237.432L360.211 237.432L359.406 238.025ZM356.45 236L356.465 235L356.45 235L356.435 235L356.45 236ZM353.494 238.025L352.689 237.432L352.689 237.432L353.494 238.025ZM341.794 238.025L340.989 237.432L340.989 237.432L341.794 238.025ZM330.094 238.025L329.289 237.432L329.289 237.432L330.094 238.025ZM318.394 238.025L317.589 237.432L317.589 237.432L318.394 238.025ZM306.694 238.025L305.889 237.432L305.889 237.432L306.694 238.025ZM295.106 237.975L295.911 238.568L295.911 238.568L295.106 237.975ZM283.406 237.975L284.211 238.568L284.211 238.568L283.406 237.975ZM277.5 238L278.31 237.413L278.31 237.413L277.5 238ZM274.649 236L274.665 235.001L274.649 235L274.634 235L274.649 236ZM271.694 238.025L270.889 237.432L270.889 237.432L271.694 238.025ZM259.994 238.025L259.189 237.432L259.189 237.432L259.994 238.025ZM248.294 238.025L247.489 237.432L247.489 237.432L248.294 238.025ZM236.594 238.025L235.789 237.432L235.789 237.432L236.594 238.025ZM224.894 238.025L224.089 237.432L224.089 237.432L224.894 238.025ZM213.194 238.025L212.389 237.432L212.389 237.432L213.194 238.025ZM201.606 237.975L202.411 238.568L202.411 238.568L201.606 237.975ZM195.7 238L196.51 237.413L196.51 237.413L195.7 238ZM192.849 236L192.865 235.001L192.849 235L192.834 235L192.849 236ZM189.894 238.025L189.089 237.432L189.089 237.432L189.894 238.025ZM178.194 238.025L177.389 237.432L177.389 237.432L178.194 238.025ZM166.494 238.025L165.689 237.432L165.689 237.432L166.494 238.025ZM154.794 238.025L153.989 237.432L153.989 237.432L154.794 238.025ZM143.094 238.025L142.289 237.432L142.289 237.432L143.094 238.025ZM131.394 238.025L130.589 237.432L130.589 237.432L131.394 238.025ZM119.806 237.975L120.611 238.568L120.611 238.568L119.806 237.975ZM96.3938 238.025L95.5889 237.432L95.5889 237.432L96.3938 238.025ZM84.6937 238.025L83.8889 237.432L83.8889 237.432L84.6937 238.025ZM72.9938 238.025L72.1889 237.432L72.1889 237.432L72.9938 238.025ZM61.2938 238.025L60.4889 237.432L60.4889 237.432L61.2938 238.025ZM49.7062 237.975L50.5111 238.568L50.5111 238.568L49.7062 237.975ZM38.0062 237.975L38.8111 238.568L38.8111 238.568L38.0062 237.975ZM32.1 238L32.9096 237.413L32.9096 237.413L32.1 238ZM29.2492 236L29.2649 235.001L29.2494 235L29.2339 235L29.2492 236ZM26.2938 238.025L25.4889 237.432L25.4889 237.432L26.2938 238.025ZM14.6 238L15.4096 238.587L15.4096 238.587L14.6 238ZM8.80625 238.025L9.61109 237.432L9.61109 237.432L8.80625 238.025ZM2.9 238L2.09039 237.413L2.09039 237.413L2.9 238ZM0 240H-1V241H0V240ZM0 0V-1H-1V0H0ZM2.9 2L2.09039 2.58697L2.09039 2.58697L2.9 2ZM8.80625 1.97458L9.61109 2.56806L9.61109 2.56806L8.80625 1.97458ZM14.6 2L15.4096 1.41303L15.4096 1.41303L14.6 2ZM26.2938 1.97458L27.0986 1.38109L27.0986 1.38109L26.2938 1.97458ZM29.2492 3.99961L29.2339 4.9995L29.2494 4.99973L29.2649 4.99949L29.2492 3.99961ZM32.1 2L32.9096 2.58697L32.9096 2.58697L32.1 2ZM38.0062 2.02542L37.2014 2.61891L37.2014 2.61891L38.0062 2.02542ZM49.7062 2.02542L48.9014 2.61891L48.9014 2.61891L49.7062 2.02542ZM61.2938 1.97458L62.0986 1.38109L62.0986 1.38109L61.2938 1.97458ZM72.9938 1.97458L73.7986 1.38109L73.7986 1.38109L72.9938 1.97458ZM84.6937 1.97458L83.8889 2.56806L83.8889 2.56806L84.6937 1.97458ZM96.3938 1.97458L97.1986 1.38109L97.1986 1.38109L96.3938 1.97458ZM113.09 1.41303C112.321 2.4746 111.874 3 111 3V5C113.026 5 114.029 3.5254 114.71 2.58697L113.09 1.41303ZM116.8 -1C114.774 -1 113.771 0.474602 113.09 1.41303L114.71 2.58697C115.479 1.5254 115.926 1 116.8 1V-1ZM120.611 1.43194C119.906 0.475995 118.879 -1 116.8 -1V1C117.746 1 118.219 1.55805 119.001 2.61891L120.611 1.43194ZM122.7 3C121.833 3 121.386 2.4833 120.611 1.43194L119.001 2.61891C119.688 3.55046 120.692 5 122.7 5V3ZM124.79 1.41303C124.021 2.4746 123.574 3 122.7 3V5C124.726 5 125.729 3.5254 126.41 2.58697L124.79 1.41303ZM128.5 -1C126.474 -1 125.471 0.474602 124.79 1.41303L126.41 2.58697C127.179 1.5254 127.626 1 128.5 1V-1ZM132.199 1.38109C131.512 0.449543 130.508 -1 128.5 -1V1C129.367 1 129.814 1.5167 130.589 2.56805L132.199 1.38109ZM134.4 3C133.454 3 132.981 2.44195 132.199 1.38109L130.589 2.56806C131.294 3.52401 132.321 5 134.4 5V3ZM136.49 1.41303C135.721 2.47461 135.274 3 134.4 3V5C136.426 5 137.429 3.52539 138.11 2.58697L136.49 1.41303ZM140.2 -1C138.174 -1 137.171 0.474602 136.49 1.41303L138.11 2.58697C138.879 1.5254 139.326 1 140.2 1V-1ZM143.899 1.38109C143.212 0.449542 142.208 -1 140.2 -1V1C141.067 1 141.514 1.5167 142.289 2.56806L143.899 1.38109ZM146.1 3C145.154 3 144.681 2.44195 143.899 1.38109L142.289 2.56806C142.994 3.52401 144.021 5 146.1 5V3ZM148.19 1.41303C147.421 2.47461 146.974 3 146.1 3V5C148.126 5 149.129 3.52539 149.81 2.58697L148.19 1.41303ZM148 1.99997V2H150V1.99997H148ZM151.9 -1C149.874 -1 148.871 0.474571 148.19 1.41299L149.81 2.58694C150.579 1.52539 151.026 1 151.9 1V-1ZM155.599 1.38109C154.912 0.449542 153.908 -1 151.9 -1V1C152.767 1 153.214 1.5167 153.989 2.56806L155.599 1.38109ZM157.8 3C156.854 3 156.381 2.44195 155.599 1.38109L153.989 2.56806C154.694 3.52401 155.721 5 157.8 5V3ZM159.89 1.41303C159.121 2.4746 158.674 3 157.8 3V5C159.826 5 160.829 3.5254 161.51 2.58697L159.89 1.41303ZM159.7 1.99997V2H161.7V1.99997H159.7ZM163.6 -1C161.574 -1 160.571 0.474571 159.89 1.41299L161.51 2.58694C162.279 1.52539 162.726 1 163.6 1V-1ZM167.299 1.38109C166.612 0.449543 165.608 -1 163.6 -1V1C164.467 1 164.914 1.5167 165.689 2.56805L167.299 1.38109ZM169.5 3C168.554 3 168.081 2.44195 167.299 1.38109L165.689 2.56806C166.394 3.52401 167.421 5 169.5 5V3ZM171.59 1.41303C170.821 2.47461 170.374 3 169.5 3V5C171.526 5 172.529 3.52539 173.21 2.58697L171.59 1.41303ZM175.3 -1C173.274 -1 172.271 0.474602 171.59 1.41303L173.21 2.58697C173.979 1.5254 174.426 1 175.3 1V-1ZM178.999 1.38109C178.312 0.449543 177.308 -1 175.3 -1V1C176.167 1 176.614 1.5167 177.389 2.56805L178.999 1.38109ZM181.2 3C180.254 3 179.781 2.44195 178.999 1.38109L177.389 2.56806C178.094 3.52401 179.121 5 181.2 5V3ZM183.29 1.41303C182.521 2.4746 182.074 3 181.2 3V5C183.226 5 184.229 3.5254 184.91 2.58697L183.29 1.41303ZM183.1 1.99997V2H185.1V1.99997H183.1ZM187 -1C184.974 -1 183.971 0.474571 183.29 1.41299L184.91 2.58694C185.679 1.52539 186.126 1 187 1V-1ZM190.699 1.38109C190.012 0.449543 189.008 -1 187 -1V1C187.867 1 188.314 1.5167 189.089 2.56805L190.699 1.38109ZM192.864 2.99973C191.943 2.98569 191.473 2.43183 190.699 1.38109L189.089 2.56806C189.785 3.5114 190.798 4.96847 192.834 4.9995L192.864 2.99973ZM194.89 1.41303C194.128 2.46424 193.684 2.98633 192.833 2.99974L192.865 4.99949C194.849 4.96822 195.838 3.51303 196.51 2.58697L194.89 1.41303ZM194.7 1.99997V2H196.7V1.99997H194.7ZM198.6 -1C196.574 -1 195.571 0.474571 194.89 1.41299L196.51 2.58694C197.279 1.52539 197.726 1 198.6 1V-1ZM202.411 1.43194C201.706 0.475994 200.679 -1 198.6 -1V1C199.546 1 200.019 1.55805 200.801 2.61891L202.411 1.43194ZM204.5 3C203.633 3 203.186 2.4833 202.411 1.43195L200.801 2.61891C201.488 3.55046 202.492 5 204.5 5V3ZM206.59 1.41303C205.821 2.47461 205.374 3 204.5 3V5C206.526 5 207.529 3.52539 208.21 2.58697L206.59 1.41303ZM210.3 -1C208.274 -1 207.271 0.474602 206.59 1.41303L208.21 2.58697C208.979 1.5254 209.426 1 210.3 1V-1ZM213.999 1.38109C213.312 0.449543 212.308 -1 210.3 -1V1C211.167 1 211.614 1.5167 212.389 2.56805L213.999 1.38109ZM216.2 3C215.254 3 214.781 2.44195 213.999 1.38109L212.389 2.56806C213.094 3.52401 214.121 5 216.2 5V3ZM218.29 1.41303C217.521 2.4746 217.074 3 216.2 3V5C218.226 5 219.229 3.5254 219.91 2.58697L218.29 1.41303ZM218.1 1.99997V2H220.1V1.99997H218.1ZM222 -1C219.974 -1 218.971 0.474571 218.29 1.41299L219.91 2.58694C220.679 1.52539 221.126 1 222 1V-1ZM225.699 1.38109C225.012 0.449543 224.008 -1 222 -1V1C222.867 1 223.314 1.5167 224.089 2.56805L225.699 1.38109ZM227.9 3C226.954 3 226.481 2.44195 225.699 1.38109L224.089 2.56806C224.794 3.52401 225.821 5 227.9 5V3ZM229.99 1.41303C229.221 2.47461 228.774 3 227.9 3V5C229.926 5 230.929 3.52539 231.61 2.58697L229.99 1.41303ZM233.7 -1C231.674 -1 230.671 0.474602 229.99 1.41303L231.61 2.58697C232.379 1.5254 232.826 1 233.7 1V-1ZM237.399 1.38109C236.712 0.449542 235.708 -1 233.7 -1V1C234.567 1 235.014 1.5167 235.789 2.56806L237.399 1.38109ZM239.6 3C238.654 3 238.181 2.44195 237.399 1.38109L235.789 2.56806C236.494 3.52401 237.521 5 239.6 5V3ZM241.69 1.41303C240.921 2.47461 240.474 3 239.6 3V5C241.626 5 242.629 3.52539 243.31 2.58697L241.69 1.41303ZM241.5 1.99997V2H243.5V1.99997H241.5ZM245.4 -1C243.374 -1 242.371 0.474571 241.69 1.41299L243.31 2.58694C244.079 1.52539 244.526 1 245.4 1V-1ZM249.099 1.38109C248.412 0.449542 247.408 -1 245.4 -1V1C246.267 1 246.714 1.5167 247.489 2.56806L249.099 1.38109ZM251.3 3C250.354 3 249.881 2.44195 249.099 1.38109L247.489 2.56806C248.194 3.52401 249.221 5 251.3 5V3ZM253.39 1.41303C252.621 2.4746 252.174 3 251.3 3V5C253.326 5 254.329 3.5254 255.01 2.58697L253.39 1.41303ZM253.2 1.99997V2H255.2V1.99997H253.2ZM257.1 -1C255.074 -1 254.071 0.474571 253.39 1.41299L255.01 2.58694C255.779 1.52539 256.226 1 257.1 1V-1ZM260.799 1.38109C260.112 0.449543 259.108 -1 257.1 -1V1C257.967 1 258.414 1.5167 259.189 2.56805L260.799 1.38109ZM263 3C262.054 3 261.581 2.44195 260.799 1.38109L259.189 2.56806C259.894 3.524 260.921 5 263 5V3ZM265.09 1.41308C264.321 2.47462 263.874 3 263 3V5C265.026 5 266.029 3.52546 266.71 2.58704L265.09 1.41308ZM264.9 2V2.00006H266.9V2H264.9ZM265 1.565L265 1.56506L266.8 2.43494L266.8 2.43488L265 1.565ZM268.8 -1C266.774 -1 265.771 0.474538 265.09 1.41297L266.71 2.5869C267.479 1.52538 267.926 1 268.8 1V-1ZM272.499 1.38109C271.812 0.449543 270.808 -1 268.8 -1V1C269.667 1 270.114 1.5167 270.889 2.56805L272.499 1.38109ZM274.664 2.99973C273.743 2.98568 273.273 2.43175 272.499 1.38109L270.889 2.56806C271.585 3.51145 272.598 4.96843 274.634 4.9995L274.664 2.99973ZM276.69 1.4131C275.928 2.46427 275.484 2.98631 274.633 2.99974L274.665 4.99949C276.649 4.96817 277.638 3.51305 278.31 2.58703L276.69 1.4131ZM276.925 1.18197L276.925 1.18204L278.075 2.81809L278.075 2.81803L276.925 1.18197ZM280.4 -1C278.374 -1 277.371 0.474605 276.69 1.41303L278.31 2.58697C279.079 1.52539 279.526 1 280.4 1V-1ZM284.211 1.43194C283.506 0.475997 282.479 -1 280.4 -1V1C281.346 1 281.819 1.55805 282.601 2.61891L284.211 1.43194ZM286.3 3C285.433 3 284.986 2.4833 284.211 1.43195L282.601 2.61891C283.288 3.55046 284.292 5 286.3 5V3ZM288.39 1.41303C287.621 2.4746 287.174 3 286.3 3V5C288.326 5 289.329 3.5254 290.01 2.58697L288.39 1.41303ZM292.1 -1C290.074 -1 289.071 0.474605 288.39 1.41303L290.01 2.58697C290.779 1.52539 291.226 1 292.1 1V-1ZM295.911 1.43194C295.206 0.475997 294.179 -1 292.1 -1V1C293.046 1 293.519 1.55805 294.301 2.61891L295.911 1.43194ZM298 3C297.133 3 296.686 2.4833 295.911 1.43195L294.301 2.61891C294.988 3.55046 295.992 5 298 5V3ZM300.09 1.41308C299.321 2.47462 298.874 3 298 3V5C300.026 5 301.029 3.52546 301.71 2.58704L300.09 1.41308ZM299.9 2V2.00006H301.9V2H299.9ZM300 1.565L300 1.56506L301.8 2.43494L301.8 2.43488L300 1.565ZM303.8 -1C301.774 -1 300.771 0.474538 300.09 1.41297L301.71 2.5869C302.479 1.52538 302.926 1 303.8 1V-1ZM307.499 1.38109C306.812 0.449543 305.808 -1 303.8 -1V1C304.667 1 305.114 1.5167 305.889 2.56805L307.499 1.38109ZM309.7 3C308.754 3 308.281 2.44194 307.499 1.38109L305.889 2.56806C306.594 3.52402 307.621 5 309.7 5V3ZM311.79 1.41308C311.021 2.47462 310.574 3 309.7 3V5C311.726 5 312.729 3.52546 313.41 2.58704L311.79 1.41308ZM311.6 2V2.00006H313.6V2H311.6ZM311.7 1.565L311.7 1.56506L313.5 2.43494L313.5 2.43488L311.7 1.565ZM315.5 -1C313.474 -1 312.471 0.474538 311.79 1.41297L313.41 2.5869C314.179 1.52538 314.626 1 315.5 1V-1ZM319.199 1.38109C318.512 0.449543 317.508 -1 315.5 -1V1C316.367 1 316.814 1.5167 317.589 2.56805L319.199 1.38109ZM321.4 3C320.454 3 319.981 2.44195 319.199 1.38109L317.589 2.56806C318.294 3.524 319.321 5 321.4 5V3ZM323.49 1.41303C322.721 2.47461 322.274 3 321.4 3V5C323.426 5 324.429 3.52539 325.11 2.58697L323.49 1.41303ZM327.2 -1C325.174 -1 324.171 0.474598 323.49 1.41303L325.11 2.58697C325.879 1.5254 326.326 1 327.2 1V-1ZM330.899 1.38109C330.212 0.449543 329.208 -1 327.2 -1V1C328.067 1 328.514 1.5167 329.289 2.56805L330.899 1.38109ZM333.1 3C332.154 3 331.681 2.44195 330.899 1.38109L329.289 2.56806C329.994 3.524 331.021 5 333.1 5V3ZM335.19 1.41303C334.421 2.47461 333.974 3 333.1 3V5C335.126 5 336.129 3.52539 336.81 2.58697L335.19 1.41303ZM338.9 -1C336.874 -1 335.871 0.474605 335.19 1.41303L336.81 2.58697C337.579 1.52539 338.026 1 338.9 1V-1ZM342.599 1.38109C341.912 0.449543 340.908 -1 338.9 -1V1C339.767 1 340.214 1.5167 340.989 2.56805L342.599 1.38109ZM344.8 3C343.854 3 343.381 2.44195 342.599 1.38109L340.989 2.56806C341.694 3.524 342.721 5 344.8 5V3ZM346.89 1.41303C346.121 2.4746 345.674 3 344.8 3V5C346.826 5 347.829 3.5254 348.51 2.58697L346.89 1.41303ZM350.6 -1C348.574 -1 347.571 0.474605 346.89 1.41303L348.51 2.58697C349.279 1.52539 349.726 1 350.6 1V-1ZM354.299 1.38109C353.612 0.449543 352.608 -1 350.6 -1V1C351.467 1 351.914 1.5167 352.689 2.56805L354.299 1.38109ZM356.465 2.99974C355.543 2.98591 355.073 2.43192 354.299 1.38108L352.689 2.56807C353.385 3.51165 354.398 4.96894 356.435 4.99951L356.465 2.99974ZM358.601 1.38112C357.826 2.43199 357.357 2.98591 356.435 2.99974L356.465 4.99951C358.502 4.96894 359.515 3.51163 360.211 2.56812L358.601 1.38112ZM358.406 1.97457V1.97462H360.406V1.97457H358.406ZM362.3 -1C360.292 -1 359.288 0.449543 358.601 1.38109L360.211 2.56805C360.986 1.5167 361.433 1 362.3 1V-1ZM366.01 1.41303C365.329 0.474598 364.326 -1 362.3 -1V1C363.174 1 363.621 1.5254 364.39 2.58697L366.01 1.41303ZM368.1 3C367.226 3 366.779 2.47461 366.01 1.41303L364.39 2.58697C365.071 3.52539 366.074 5 368.1 5V3ZM370.301 1.38109C369.519 2.44195 369.046 3 368.1 3V5C370.179 5 371.206 3.524 371.911 2.56806L370.301 1.38109ZM374 -1C371.992 -1 370.988 0.449543 370.301 1.38109L371.911 2.56805C372.686 1.5167 373.133 1 374 1V-1ZM375 4V0H373V4H375ZM375 236V4H373V236H375ZM373 236V240H375V236H373ZM374 239C373.133 239 372.686 238.483 371.911 237.432L370.301 238.619C370.988 239.55 371.992 241 374 241V239ZM371.911 237.432C371.206 236.476 370.179 235 368.1 235V237C369.046 237 369.519 237.558 370.301 238.619L371.911 237.432ZM368.1 235C366.074 235 365.071 236.475 364.39 237.413L366.01 238.587C366.779 237.525 367.226 237 368.1 237V235ZM364.39 237.413C363.621 238.475 363.174 239 362.3 239V241C364.326 241 365.329 239.525 366.01 238.587L364.39 237.413ZM362.3 239C361.433 239 360.986 238.483 360.211 237.432L358.601 238.619C359.288 239.55 360.292 241 362.3 241V239ZM360.211 237.432C359.515 236.488 358.502 235.031 356.465 235L356.435 237C357.357 237.014 357.826 237.568 358.601 238.619L360.211 237.432ZM356.435 235C354.398 235.031 353.385 236.488 352.689 237.432L354.299 238.619C355.073 237.568 355.543 237.014 356.465 237L356.435 235ZM352.689 237.432C351.914 238.483 351.467 239 350.6 239V241C352.608 241 353.612 239.55 354.299 238.619L352.689 237.432ZM350.6 239C349.726 239 349.279 238.475 348.51 237.413L346.89 238.587C347.571 239.525 348.574 241 350.6 241V239ZM348.51 237.413C347.829 236.475 346.826 235 344.8 235V237C345.674 237 346.121 237.525 346.89 238.587L348.51 237.413ZM344.8 235C342.721 235 341.694 236.476 340.989 237.432L342.599 238.619C343.381 237.558 343.854 237 344.8 237V235ZM340.989 237.432C340.214 238.483 339.767 239 338.9 239V241C340.908 241 341.912 239.55 342.599 238.619L340.989 237.432ZM338.9 239C338.026 239 337.579 238.475 336.81 237.413L335.19 238.587C335.871 239.525 336.874 241 338.9 241V239ZM336.81 237.413C336.129 236.475 335.126 235 333.1 235V237C333.974 237 334.421 237.525 335.19 238.587L336.81 237.413ZM333.1 235C331.021 235 329.994 236.476 329.289 237.432L330.899 238.619C331.681 237.558 332.154 237 333.1 237V235ZM329.289 237.432C328.514 238.483 328.067 239 327.2 239V241C329.208 241 330.212 239.55 330.899 238.619L329.289 237.432ZM327.2 239C326.326 239 325.879 238.475 325.11 237.413L323.49 238.587C324.171 239.525 325.174 241 327.2 241V239ZM325.11 237.413C324.429 236.475 323.426 235 321.4 235V237C322.274 237 322.721 237.525 323.49 238.587L325.11 237.413ZM321.4 235C319.321 235 318.294 236.476 317.589 237.432L319.199 238.619C319.981 237.558 320.454 237 321.4 237V235ZM317.589 237.432C316.814 238.483 316.367 239 315.5 239V241C317.508 241 318.512 239.55 319.199 238.619L317.589 237.432ZM315.5 239C314.626 239 314.179 238.475 313.41 237.413L311.79 238.587C312.471 239.525 313.474 241 315.5 241V239ZM313.41 237.413C312.729 236.475 311.726 235 309.7 235V237C310.574 237 311.021 237.525 311.79 238.587L313.41 237.413ZM309.7 235C307.621 235 306.594 236.476 305.889 237.432L307.499 238.619C308.281 237.558 308.754 237 309.7 237V235ZM305.889 237.432C305.114 238.483 304.667 239 303.8 239V241C305.808 241 306.812 239.55 307.499 238.619L305.889 237.432ZM303.8 239C302.926 239 302.479 238.475 301.71 237.413L300.09 238.587C300.771 239.525 301.774 241 303.8 241V239ZM301.71 237.413C301.029 236.475 300.026 235 298 235V237C298.874 237 299.321 237.525 300.09 238.587L301.71 237.413ZM298 235C295.992 235 294.988 236.45 294.301 237.381L295.911 238.568C296.686 237.517 297.133 237 298 237V235ZM294.301 237.381C293.519 238.442 293.046 239 292.1 239V241C294.179 241 295.206 239.524 295.911 238.568L294.301 237.381ZM292.1 239C291.226 239 290.779 238.475 290.01 237.413L288.39 238.587C289.071 239.525 290.074 241 292.1 241V239ZM290.01 237.413C289.329 236.475 288.326 235 286.3 235V237C287.174 237 287.621 237.525 288.39 238.587L290.01 237.413ZM286.3 235C284.292 235 283.288 236.45 282.601 237.381L284.211 238.568C284.986 237.517 285.433 237 286.3 237V235ZM282.601 237.381C281.819 238.442 281.346 239 280.4 239V241C282.479 241 283.506 239.524 284.211 238.568L282.601 237.381ZM280.4 239C279.526 239 279.079 238.475 278.31 237.413L276.69 238.587C277.371 239.525 278.374 241 280.4 241V239ZM278.31 237.413C277.638 236.487 276.649 235.032 274.665 235.001L274.633 237C275.484 237.014 275.928 237.536 276.69 238.587L278.31 237.413ZM274.634 235C272.598 235.032 271.585 236.489 270.889 237.432L272.499 238.619C273.273 237.568 273.743 237.014 274.664 237L274.634 235ZM270.889 237.432C270.114 238.483 269.667 239 268.8 239V241C270.808 241 271.812 239.55 272.499 238.619L270.889 237.432ZM268.8 239C267.926 239 267.479 238.475 266.71 237.413L265.09 238.587C265.771 239.525 266.774 241 268.8 241V239ZM266.71 237.413C266.029 236.475 265.026 235 263 235V237C263.874 237 264.321 237.525 265.09 238.587L266.71 237.413ZM263 235C260.921 235 259.894 236.476 259.189 237.432L260.799 238.619C261.581 237.558 262.054 237 263 237V235ZM259.189 237.432C258.414 238.483 257.967 239 257.1 239V241C259.108 241 260.112 239.55 260.799 238.619L259.189 237.432ZM257.1 239C256.226 239 255.779 238.475 255.01 237.413L253.39 238.587C254.071 239.525 255.074 241 257.1 241V239ZM255.01 237.413C254.329 236.475 253.326 235 251.3 235V237C252.174 237 252.621 237.525 253.39 238.587L255.01 237.413ZM251.3 235C249.221 235 248.194 236.476 247.489 237.432L249.099 238.619C249.881 237.558 250.354 237 251.3 237V235ZM247.489 237.432C246.714 238.483 246.267 239 245.4 239V241C247.408 241 248.412 239.55 249.099 238.619L247.489 237.432ZM245.4 239C244.526 239 244.079 238.475 243.31 237.413L241.69 238.587C242.371 239.525 243.374 241 245.4 241V239ZM243.31 237.413C242.629 236.475 241.626 235 239.6 235V237C240.474 237 240.921 237.525 241.69 238.587L243.31 237.413ZM239.6 235C237.521 235 236.494 236.476 235.789 237.432L237.399 238.619C238.181 237.558 238.654 237 239.6 237V235ZM235.789 237.432C235.014 238.483 234.567 239 233.7 239V241C235.708 241 236.712 239.55 237.399 238.619L235.789 237.432ZM233.7 239C232.826 239 232.379 238.475 231.61 237.413L229.99 238.587C230.671 239.525 231.674 241 233.7 241V239ZM231.61 237.413C230.929 236.475 229.926 235 227.9 235V237C228.774 237 229.221 237.525 229.99 238.587L231.61 237.413ZM227.9 235C225.821 235 224.794 236.476 224.089 237.432L225.699 238.619C226.481 237.558 226.954 237 227.9 237V235ZM224.089 237.432C223.314 238.483 222.867 239 222 239V241C224.008 241 225.012 239.55 225.699 238.619L224.089 237.432ZM222 239C221.126 239 220.679 238.475 219.91 237.413L218.29 238.587C218.971 239.525 219.974 241 222 241V239ZM219.91 237.413C219.229 236.475 218.226 235 216.2 235V237C217.074 237 217.521 237.525 218.29 238.587L219.91 237.413ZM216.2 235C214.121 235 213.094 236.476 212.389 237.432L213.999 238.619C214.781 237.558 215.254 237 216.2 237V235ZM212.389 237.432C211.614 238.483 211.167 239 210.3 239V241C212.308 241 213.312 239.55 213.999 238.619L212.389 237.432ZM210.3 239C209.426 239 208.979 238.475 208.21 237.413L206.59 238.587C207.271 239.525 208.274 241 210.3 241V239ZM208.21 237.413C207.529 236.475 206.526 235 204.5 235V237C205.374 237 205.821 237.525 206.59 238.587L208.21 237.413ZM204.5 235C202.492 235 201.488 236.45 200.801 237.381L202.411 238.568C203.186 237.517 203.633 237 204.5 237V235ZM200.801 237.381C200.019 238.442 199.546 239 198.6 239V241C200.679 241 201.706 239.524 202.411 238.568L200.801 237.381ZM198.6 239C197.726 239 197.279 238.475 196.51 237.413L194.89 238.587C195.571 239.525 196.574 241 198.6 241V239ZM196.51 237.413C195.838 236.487 194.849 235.032 192.865 235.001L192.833 237C193.684 237.014 194.128 237.536 194.89 238.587L196.51 237.413ZM192.834 235C190.798 235.032 189.785 236.489 189.089 237.432L190.699 238.619C191.473 237.568 191.943 237.014 192.864 237L192.834 235ZM189.089 237.432C188.314 238.483 187.867 239 187 239V241C189.008 241 190.012 239.55 190.699 238.619L189.089 237.432ZM187 239C186.126 239 185.679 238.475 184.91 237.413L183.29 238.587C183.971 239.525 184.974 241 187 241V239ZM184.91 237.413C184.229 236.475 183.226 235 181.2 235V237C182.074 237 182.521 237.525 183.29 238.587L184.91 237.413ZM181.2 235C179.121 235 178.094 236.476 177.389 237.432L178.999 238.619C179.781 237.558 180.254 237 181.2 237V235ZM177.389 237.432C176.614 238.483 176.167 239 175.3 239V241C177.308 241 178.312 239.55 178.999 238.619L177.389 237.432ZM175.3 239C174.426 239 173.979 238.475 173.21 237.413L171.59 238.587C172.271 239.525 173.274 241 175.3 241V239ZM173.21 237.413C172.529 236.475 171.526 235 169.5 235V237C170.374 237 170.821 237.525 171.59 238.587L173.21 237.413ZM169.5 235C167.421 235 166.394 236.476 165.689 237.432L167.299 238.619C168.081 237.558 168.554 237 169.5 237V235ZM165.689 237.432C164.914 238.483 164.467 239 163.6 239V241C165.608 241 166.612 239.55 167.299 238.619L165.689 237.432ZM163.6 239C162.726 239 162.279 238.475 161.51 237.413L159.89 238.587C160.571 239.525 161.574 241 163.6 241V239ZM161.51 237.413C160.829 236.475 159.826 235 157.8 235V237C158.674 237 159.121 237.525 159.89 238.587L161.51 237.413ZM157.8 235C155.721 235 154.694 236.476 153.989 237.432L155.599 238.619C156.381 237.558 156.854 237 157.8 237V235ZM153.989 237.432C153.214 238.483 152.767 239 151.9 239V241C153.908 241 154.912 239.55 155.599 238.619L153.989 237.432ZM151.9 239C151.026 239 150.579 238.475 149.81 237.413L148.19 238.587C148.871 239.525 149.874 241 151.9 241V239ZM149.81 237.413C149.129 236.475 148.126 235 146.1 235V237C146.974 237 147.421 237.525 148.19 238.587L149.81 237.413ZM146.1 235C144.021 235 142.994 236.476 142.289 237.432L143.899 238.619C144.681 237.558 145.154 237 146.1 237V235ZM142.289 237.432C141.514 238.483 141.067 239 140.2 239V241C142.208 241 143.212 239.55 143.899 238.619L142.289 237.432ZM140.2 239C139.326 239 138.879 238.475 138.11 237.413L136.49 238.587C137.171 239.525 138.174 241 140.2 241V239ZM138.11 237.413C137.429 236.475 136.426 235 134.4 235V237C135.274 237 135.721 237.525 136.49 238.587L138.11 237.413ZM134.4 235C132.321 235 131.294 236.476 130.589 237.432L132.199 238.619C132.981 237.558 133.454 237 134.4 237V235ZM130.589 237.432C129.814 238.483 129.367 239 128.5 239V241C130.508 241 131.512 239.55 132.199 238.619L130.589 237.432ZM128.5 239C127.626 239 127.179 238.475 126.41 237.413L124.79 238.587C125.471 239.525 126.474 241 128.5 241V239ZM126.41 237.413C125.729 236.475 124.726 235 122.7 235V237C123.574 237 124.021 237.525 124.79 238.587L126.41 237.413ZM120.611 238.568C121.386 237.517 121.833 237 122.7 237V235C120.692 235 119.688 236.45 119.001 237.381L120.611 238.568ZM116.8 241C118.879 241 119.906 239.524 120.611 238.568L119.001 237.381C118.219 238.442 117.746 239 116.8 239V241ZM113.09 238.587C113.771 239.525 114.774 241 116.8 241V239C115.926 239 115.479 238.475 114.71 237.413L113.09 238.587ZM111 237C111.874 237 112.321 237.525 113.09 238.587L114.71 237.413C114.029 236.475 113.026 235 111 235V237ZM111 235C108.974 235 107.971 236.475 107.29 237.413L108.91 238.587C109.679 237.525 110.126 237 111 237V235ZM107.29 237.413C106.521 238.475 106.074 239 105.2 239V241C107.226 241 108.229 239.525 108.91 238.587L107.29 237.413ZM105.2 239C104.326 239 103.879 238.475 103.11 237.413L101.49 238.587C102.171 239.525 103.174 241 105.2 241V239ZM103.11 237.413C102.429 236.475 101.426 235 99.4 235V237C100.274 237 100.721 237.525 101.49 238.587L103.11 237.413ZM99.4 235C97.3207 235 96.2938 236.476 95.5889 237.432L97.1986 238.619C97.9809 237.558 98.4539 237 99.4 237V235ZM95.5889 237.432C94.8136 238.483 94.3674 239 93.5 239V241C95.508 241 96.5117 239.55 97.1986 238.619L95.5889 237.432ZM93.5 239C92.6261 239 92.1792 238.475 91.4096 237.413L89.7904 238.587C90.4707 239.525 91.4739 241 93.5 241V239ZM91.4096 237.413C90.7292 236.475 89.7261 235 87.7 235V237C88.5739 237 89.0208 237.525 89.7904 238.587L91.4096 237.413ZM87.7 235C85.6207 235 84.5938 236.476 83.8889 237.432L85.4986 238.619C86.2809 237.558 86.7539 237 87.7 237V235ZM83.8889 237.432C83.1136 238.483 82.6674 239 81.8 239V241C83.808 241 84.8117 239.55 85.4986 238.619L83.8889 237.432ZM81.8 239C80.9261 239 80.4792 238.475 79.7096 237.413L78.0904 238.587C78.7708 239.525 79.7739 241 81.8 241V239ZM79.7096 237.413C79.0293 236.475 78.0261 235 76 235V237C76.8739 237 77.3208 237.525 78.0904 238.587L79.7096 237.413ZM76 235C73.9207 235 72.8938 236.476 72.1889 237.432L73.7986 238.619C74.5809 237.558 75.0539 237 76 237V235ZM72.1889 237.432C71.4136 238.483 70.9674 239 70.1 239V241C72.108 241 73.1117 239.55 73.7986 238.619L72.1889 237.432ZM70.1 239C69.2261 239 68.7792 238.475 68.0096 237.413L66.3904 238.587C67.0707 239.525 68.0739 241 70.1 241V239ZM68.0096 237.413C67.3292 236.475 66.3261 235 64.3 235V237C65.1739 237 65.6207 237.525 66.3904 238.587L68.0096 237.413ZM64.3 235C62.2207 235 61.1938 236.476 60.4889 237.432L62.0986 238.619C62.8809 237.558 63.3539 237 64.3 237V235ZM60.4889 237.432C59.7136 238.483 59.2674 239 58.4 239V241C60.408 241 61.4117 239.55 62.0986 238.619L60.4889 237.432ZM58.4 239C57.5261 239 57.0792 238.475 56.3096 237.413L54.6904 238.587C55.3707 239.525 56.3739 241 58.4 241V239ZM56.3096 237.413C55.6293 236.475 54.6261 235 52.6 235V237C53.4739 237 53.9208 237.525 54.6904 238.587L56.3096 237.413ZM52.6 235C50.592 235 49.5883 236.45 48.9014 237.381L50.5111 238.568C51.2864 237.517 51.7326 237 52.6 237V235ZM48.9014 237.381C48.1191 238.442 47.6461 239 46.7 239V241C48.7793 241 49.8062 239.524 50.5111 238.568L48.9014 237.381ZM46.7 239C45.8261 239 45.3793 238.475 44.6096 237.413L42.9904 238.587C43.6708 239.525 44.6739 241 46.7 241V239ZM44.6096 237.413C43.9293 236.475 42.9261 235 40.9 235V237C41.7739 237 42.2208 237.525 42.9904 238.587L44.6096 237.413ZM40.9 235C38.892 235 37.8883 236.45 37.2014 237.381L38.8111 238.568C39.5864 237.517 40.0326 237 40.9 237V235ZM37.2014 237.381C36.4191 238.442 35.9461 239 35 239V241C37.0793 241 38.1062 239.524 38.8111 238.568L37.2014 237.381ZM35 239C34.1261 239 33.6792 238.475 32.9096 237.413L31.2904 238.587C31.9707 239.525 32.9739 241 35 241V239ZM32.9096 237.413C32.2382 236.487 31.2487 235.032 29.2649 235.001L29.2334 237C30.0843 237.014 30.5283 237.536 31.2904 238.587L32.9096 237.413ZM29.2339 235C27.1976 235.032 26.1845 236.489 25.4889 237.432L27.0986 238.619C27.8734 237.568 28.3432 237.014 29.2644 237L29.2339 235ZM25.4889 237.432C24.7136 238.483 24.2674 239 23.4 239V241C25.408 241 26.4117 239.55 27.0986 238.619L25.4889 237.432ZM23.4 239C22.5261 239 22.0793 238.475 21.3096 237.413L19.6904 238.587C20.3708 239.525 21.3739 241 23.4 241V239ZM21.3096 237.413C20.6292 236.475 19.6261 235 17.6 235V237C18.4739 237 18.9207 237.525 19.6904 238.587L21.3096 237.413ZM17.5 237H17.6V235H17.5V237ZM17.5 235C15.4739 235 14.4708 236.475 13.7904 237.413L15.4096 238.587C16.1793 237.525 16.6261 237 17.5 237V235ZM13.7904 237.413C13.0208 238.475 12.5739 239 11.7 239V241C13.7261 241 14.7293 239.525 15.4096 238.587L13.7904 237.413ZM11.7 239C10.8326 239 10.3864 238.483 9.61109 237.432L8.0014 238.619C8.68832 239.55 9.692 241 11.7 241V239ZM9.61109 237.432C8.90619 236.476 7.87934 235 5.8 235V237C6.74609 237 7.21913 237.558 8.00141 238.619L9.61109 237.432ZM5.8 235C3.77394 235 2.77075 236.475 2.09039 237.413L3.70961 238.587C4.47925 237.525 4.92606 237 5.8 237V235ZM2.09039 237.413C1.32075 238.475 0.87394 239 0 239V241C2.02606 241 3.02925 239.525 3.70961 238.587L2.09039 237.413ZM1 240V236H-1V240H1ZM-1 4V236H1V4H-1ZM-1 0V4H1V0H-1ZM3.70961 1.41303C3.02925 0.474604 2.02606 -1 0 -1V1C0.87394 1 1.32075 1.5254 2.09039 2.58697L3.70961 1.41303ZM5.8 3C4.92606 3 4.47925 2.4746 3.70961 1.41303L2.09039 2.58697C2.77075 3.5254 3.77394 5 5.8 5V3ZM8.00141 1.38109C7.21913 2.44195 6.74609 3 5.8 3V5C7.87934 5 8.90619 3.524 9.61109 2.56806L8.00141 1.38109ZM11.7 -1C9.692 -1 8.68832 0.449543 8.0014 1.38109L9.61109 2.56806C10.3864 1.5167 10.8326 1 11.7 1V-1ZM15.4096 1.41303C14.7293 0.474604 13.7261 -1 11.7 -1V1C12.5739 1 13.0208 1.5254 13.7904 2.58697L15.4096 1.41303ZM17.5 3C16.6261 3 16.1793 2.4746 15.4096 1.41303L13.7904 2.58697C14.4708 3.5254 15.4739 5 17.5 5V3ZM17.6 3H17.5V5H17.6V3ZM19.6904 1.41303C18.9207 2.4746 18.4739 3 17.6 3V5C19.6261 5 20.6292 3.5254 21.3096 2.58697L19.6904 1.41303ZM23.4 -1C21.3739 -1 20.3708 0.474604 19.6904 1.41303L21.3096 2.58697C22.0793 1.5254 22.5261 1 23.4 1V-1ZM27.0986 1.38109C26.4117 0.449543 25.408 -1 23.4 -1V1C24.2674 1 24.7136 1.5167 25.4889 2.56806L27.0986 1.38109ZM29.2644 2.99973C28.3432 2.98569 27.8734 2.43183 27.0986 1.38109L25.4889 2.56806C26.1845 3.5114 27.1976 4.96847 29.2339 4.9995L29.2644 2.99973ZM31.2904 1.41303C30.5283 2.46424 30.0843 2.98633 29.2334 2.99974L29.2649 4.99949C31.2487 4.96822 32.2382 3.51303 32.9096 2.58697L31.2904 1.41303ZM35 -1C32.9739 -1 31.9707 0.474603 31.2904 1.41303L32.9096 2.58697C33.6792 1.5254 34.1261 1 35 1V-1ZM38.8111 1.43194C38.1062 0.475994 37.0793 -1 35 -1V1C35.9461 1 36.4191 1.55805 37.2014 2.61891L38.8111 1.43194ZM40.9 3C40.0326 3 39.5864 2.4833 38.8111 1.43194L37.2014 2.61891C37.8883 3.55046 38.892 5 40.9 5V3ZM42.9904 1.41303C42.2208 2.4746 41.7739 3 40.9 3V5C42.9261 5 43.9293 3.5254 44.6096 2.58697L42.9904 1.41303ZM46.7 -1C44.6739 -1 43.6708 0.474605 42.9904 1.41303L44.6096 2.58697C45.3793 1.5254 45.8261 1 46.7 1V-1ZM50.5111 1.43194C49.8062 0.475996 48.7793 -1 46.7 -1V1C47.6461 1 48.1191 1.55805 48.9014 2.61891L50.5111 1.43194ZM52.6 3C51.7326 3 51.2864 2.4833 50.5111 1.43194L48.9014 2.61891C49.5883 3.55046 50.592 5 52.6 5V3ZM54.6904 1.41303C53.9208 2.4746 53.4739 3 52.6 3V5C54.6261 5 55.6293 3.5254 56.3096 2.58697L54.6904 1.41303ZM58.4 -1C56.3739 -1 55.3707 0.474603 54.6904 1.41303L56.3096 2.58697C57.0792 1.5254 57.5261 1 58.4 1V-1ZM62.0986 1.38109C61.4117 0.449542 60.408 -1 58.4 -1V1C59.2674 1 59.7136 1.5167 60.4889 2.56806L62.0986 1.38109ZM64.3 3C63.3539 3 62.8809 2.44195 62.0986 1.38109L60.4889 2.56806C61.1938 3.52401 62.2207 5 64.3 5V3ZM66.3904 1.41303C65.6207 2.47461 65.1739 3 64.3 3V5C66.3261 5 67.3292 3.52539 68.0096 2.58697L66.3904 1.41303ZM70.1 -1C68.0739 -1 67.0707 0.474604 66.3904 1.41303L68.0096 2.58697C68.7792 1.5254 69.2261 1 70.1 1V-1ZM73.7986 1.38109C73.1117 0.449544 72.108 -1 70.1 -1V1C70.9674 1 71.4136 1.5167 72.1889 2.56806L73.7986 1.38109ZM76 3C75.0539 3 74.5809 2.44195 73.7986 1.38109L72.1889 2.56806C72.8938 3.524 73.9207 5 76 5V3ZM78.0904 1.41303C77.3208 2.4746 76.8739 3 76 3V5C78.0261 5 79.0293 3.5254 79.7096 2.58697L78.0904 1.41303ZM81.8 -1C79.7739 -1 78.7708 0.474602 78.0904 1.41303L79.7096 2.58697C80.4792 1.5254 80.9261 1 81.8 1V-1ZM85.4986 1.38109C84.8117 0.449544 83.808 -1 81.8 -1V1C82.6674 1 83.1136 1.5167 83.8889 2.56806L85.4986 1.38109ZM87.7 3C86.7539 3 86.2809 2.44195 85.4986 1.38109L83.8889 2.56806C84.5938 3.524 85.6207 5 87.7 5V3ZM89.7904 1.41303C89.0208 2.4746 88.5739 3 87.7 3V5C89.7261 5 90.7292 3.5254 91.4096 2.58697L89.7904 1.41303ZM93.5 -1C91.4739 -1 90.4707 0.474602 89.7904 1.41303L91.4096 2.58697C92.1792 1.5254 92.6261 1 93.5 1V-1ZM97.1986 1.38109C96.5117 0.449544 95.508 -1 93.5 -1V1C94.3674 1 94.8136 1.5167 95.5889 2.56806L97.1986 1.38109ZM99.4 3C98.4539 3 97.9809 2.44195 97.1986 1.38109L95.5889 2.56806C96.2938 3.524 97.3207 5 99.4 5V3ZM101.49 1.41303C100.721 2.4746 100.274 3 99.4 3V5C101.426 5 102.429 3.5254 103.11 2.58697L101.49 1.41303ZM105.2 -1C103.174 -1 102.171 0.474606 101.49 1.41303L103.11 2.58697C103.879 1.52539 104.326 1 105.2 1V-1ZM108.91 1.41303C108.229 0.474602 107.226 -1 105.2 -1V1C106.074 1 106.521 1.5254 107.29 2.58697L108.91 1.41303ZM111 3C110.126 3 109.679 2.4746 108.91 1.41303L107.29 2.58697C107.971 3.5254 108.974 5 111 5V3Z" fill="#C9CBCD" mask="url(#path-1-inside-1)"/>
</svg>
